<?xml version="1.0" encoding="UTF-8"?>
<svg version="1.1" xmlns="http://www.w3.org/2000/svg" width="500" height="500">
<path d="M0 0 C3.76232661 3.02749719 5.56485255 6.77377429 7.5625 11.0625 C11.84314 19.92527701 16.70686344 28.39374718 21.73193359 36.85205078 C22.83666477 38.72333012 23.91731057 40.60539513 24.98828125 42.49609375 C30.17999344 51.40093629 36.57613537 59.11155267 43.24804688 66.93945312 C44.87206015 68.84952448 46.47783249 70.77317641 48.078125 72.703125 C58.68039031 85.40893049 70.06594101 96.79114723 83.31494141 106.72509766 C84.93956135 107.95427259 86.53876001 109.21682765 88.13671875 110.48046875 C100.85647823 120.51902422 114.29110317 129.88064727 128.90673828 136.94677734 C131.29332464 138.14758601 133.60445022 139.4609785 135.93359375 140.76953125 C145.96367997 146.25681129 145.96367997 146.25681129 157.00390625 146.06640625 C161.13786339 144.52095892 164.95374714 142.49377177 168.76416016 140.27832031 C170.92398325 139.04346186 173.103739 137.95465336 175.35546875 136.8984375 C196.1577685 127.1279171 214.50327811 112.75055435 232 98 C232.89976562 97.24460937 233.79953125 96.48921875 234.7265625 95.7109375 C245.93385158 85.96388153 255.80645238 74.63000017 265 63 C265.90237611 61.89999883 266.80609264 60.8010963 267.7109375 59.703125 C273.56566056 52.53078704 278.43675428 45.25218744 282.85449219 37.0859375 C285.19041376 32.83229004 287.64074829 28.64266024 290.0625 24.4375 C294.06546096 17.47859263 297.92013329 10.48848238 301.5 3.30078125 C303.16319855 0.74967722 304.12245541 -0.08070882 307 -1 C309.03515625 -1.1171875 309.03515625 -1.1171875 311.0625 -0.875 C311.73410156 -0.81054688 312.40570313 -0.74609375 313.09765625 -0.6796875 C315.76492953 0.27330131 316.52427347 1.60968803 318 4 C322.96204518 35.70304061 300.41747203 79.75040346 286 107 C285.37006505 108.20236139 284.74034719 109.40483655 284.11083984 110.60742188 C277.14443567 123.8618471 269.88209026 136.60410293 260.41748047 148.24560547 C258.95921014 150.050485 257.54064058 151.88120095 256.12890625 153.72265625 C251.39914714 159.87346041 246.53410282 165.81937687 241.265625 171.5234375 C239.37880336 173.58592874 237.54559182 175.67788158 235.71875 177.79296875 C232.04742651 181.99801751 228.1988537 185.99345494 224.25 189.9375 C223.5497168 190.63697754 222.84943359 191.33645508 222.12792969 192.05712891 C217.54449528 196.58692514 212.88829534 200.82188256 207.79980469 204.78173828 C204.9774995 207.01782696 202.2503213 209.34149534 199.515625 211.68359375 C193.69592515 216.5862117 187.57723484 220.89067717 181.21826172 225.06030273 C179.49554844 226.19042027 177.78057655 227.3315852 176.06640625 228.47460938 C172.73450371 230.68705972 169.37320127 232.85092829 166 235 C164.34677734 236.06081787 164.34677734 236.06081787 162.66015625 237.14306641 C161.08041016 238.11832275 161.08041016 238.11832275 159.46875 239.11328125 C158.53482422 239.69505127 157.60089844 240.27682129 156.63867188 240.8762207 C153.4809856 242.22104212 152.21341262 242.09985839 149 241 C146.75512695 239.89599609 146.75512695 239.89599609 144.48828125 238.5234375 C143.65288818 238.02102539 142.81749512 237.51861328 141.95678711 237.00097656 C141.08417236 236.4644043 140.21155762 235.92783203 139.3125 235.375 C138.41345947 234.82811523 137.51441895 234.28123047 136.58813477 233.71777344 C130.56011792 230.02556524 124.69127002 226.19516351 119 222 C117.74123047 221.12021484 117.74123047 221.12021484 116.45703125 220.22265625 C109.114336 215.04144705 102.33153995 209.31547297 95.58691406 203.39160156 C94.24988458 202.21912955 92.90334894 201.05751075 91.5546875 199.8984375 C78.73009871 188.68250793 66.39846527 176.50627726 56 163 C55.10233438 161.8995811 54.20103601 160.80211946 53.296875 159.70703125 C39.88378513 143.39821199 28.74986777 126.53536487 19.33447266 107.62597656 C18.14109557 105.27764799 16.89798821 102.97449164 15.60546875 100.6796875 C1.97191779 76.40725541 -6.04338366 49.06426969 -12 22 C-12.26039062 20.84886719 -12.52078125 19.69773438 -12.7890625 18.51171875 C-13.93059227 13.00954525 -14.27881318 8.50873369 -13 3 C-9.629664 -1.74910982 -5.25074073 -1.19753736 0 0 Z " fill="#4caf50" transform="translate(98,153)"/>
<path d="M0 0 C0 0.33 0 0.66 0 1 C-0.62648438 1.04898438 -1.25296875 1.09796875 -1.8984375 1.1484375 C-2.71570313 1.22320312 -3.53296875 1.29796875 -4.375 1.375 C-5.18710938 1.44460937 -5.99921875 1.51421875 -6.8359375 1.5859375 C-9.20334191 1.82892588 -9.20334191 1.82892588 -11 4 C-11.85799397 10.17377256 -10.59121067 16.41135086 -9.3125 22.4375 C-9.13315918 23.30294434 -8.95381836 24.16838867 -8.76904297 25.06005859 C-4.99498443 42.79845711 0.20678586 60.55735226 7.3359375 77.25 C8 79 8 79 8 81 C8.99 81 9.98 81 11 81 C11.64690922 82.6037331 12.29248764 84.20800306 12.9375 85.8125 C13.29714844 86.70582031 13.65679687 87.59914063 14.02734375 88.51953125 C15.39498952 92.00730258 16 94.17760735 16 98 C17.485 98.495 17.485 98.495 19 99 C19 100.65 19 102.3 19 104 C19.99 104.33 20.98 104.66 22 105 C22.309375 105.78375 22.61875 106.5675 22.9375 107.375 C23.76283829 110.10756935 23.76283829 110.10756935 26 111.375 C28.91725377 113.74526869 29.19131286 116.42829848 30 120 C30.639375 120.103125 31.27875 120.20625 31.9375 120.3125 C32.618125 120.539375 33.29875 120.76625 34 121 C34.33 121.99 34.66 122.98 35 124 C34.67 124.33 34.34 124.66 34 125 C34.99 125.99 35.98 126.98 37 128 C36.67 128.99 36.34 129.98 36 131 C36.66 131 37.32 131 38 131 C38.2475 131.804375 38.495 132.60875 38.75 133.4375 C39.1625 134.283125 39.575 135.12875 40 136 C42.02463255 136.65213292 42.02463255 136.65213292 44 137 C45.05566977 140.16700931 44.97926374 140.96428241 44 144 C43.67 144.66 43.34 145.32 43 146 C33.4878311 134.2359707 26.54302038 121.39190442 19.57910156 108.00097656 C18.24379919 105.46332399 16.87319794 102.95619864 15.4609375 100.4609375 C1.87503042 76.29260118 -6.06872134 48.94914633 -12 22 C-12.26039062 20.84886719 -12.52078125 19.69773438 -12.7890625 18.51171875 C-13.93059227 13.00954525 -14.27881318 8.50873369 -13 3 C-9.56596914 -1.83886167 -5.33823888 -0.90649339 0 0 Z M35 122 C35.99 122.33 36.98 122.66 38 123 C37.34 123.66 36.68 124.32 36 125 C35.67 124.01 35.34 123.02 35 122 Z " fill="#4caf50" transform="translate(98,153)"/>
<path d="M0 0 C4.22234302 4.72740797 6.93021558 10.18680525 9.875 15.75 C13.2024113 22.03038245 16.61267086 28.09732806 20.63916016 33.95825195 C21.85817373 35.78720971 22.92699386 37.62542397 23.96875 39.55859375 C26.44539901 43.7546087 29.36746406 47.34366054 32.5 51.0625 C33.11657471 51.80129395 33.73314941 52.54008789 34.3684082 53.30126953 C36.24001956 55.5389351 38.11979929 57.76955107 40 60 C41.0665294 61.27724093 42.13294298 62.55457858 43.19921875 63.83203125 C49.45204536 71.27265271 56.00313228 78.25105279 63 85 C60 85 60 85 57.1875 82.41015625 C56.11744936 81.30150926 55.05522392 80.18526845 54 79.0625 C50.08844225 74.70213671 50.08844225 74.70213671 45 72 C45 71.34 45 70.68 45 70 C44.01 69.67 43.02 69.34 42 69 C42 68.34 42 67.68 42 67 C41.34 67 40.68 67 40 67 C40 66.34 40 65.68 40 65 C39.34 65 38.68 65 38 65 C37.67 64.01 37.34 63.02 37 62 C36.01 61.505 36.01 61.505 35 61 C34.731875 60.030625 34.46375 59.06125 34.1875 58.0625 C33.30104152 54.83836004 33.30104152 54.83836004 30.5625 53.5625 C27.90002412 52.74872624 27.90002412 52.74872624 25 54 C25.0928125 52.329375 25.0928125 52.329375 25.1875 50.625 C25.125625 49.42875 25.06375 48.2325 25 47 C22.18490007 44.7226499 22.18490007 44.7226499 19 45 C17.19588033 42.24075815 16.9872755 41.11027897 17.375 37.75 C17.684375 36.38875 17.684375 36.38875 18 35 C15.03 35.99 12.06 36.98 9 38 C9.33 37.01 9.66 36.02 10 35 C10.66 35 11.32 35 12 35 C11.67 33.35 11.34 31.7 11 30 C11.66 30 12.32 30 13 30 C12.6390625 29.37351563 12.278125 28.74703125 11.90625 28.1015625 C11.4421875 27.28429687 10.978125 26.46703125 10.5 25.625 C10.0359375 24.81289062 9.571875 24.00078125 9.09375 23.1640625 C8 21 8 21 8 19 C7.34 19 6.68 19 6 19 C2.82523652 12.62704304 0.40475235 7.15062486 0 0 Z " fill="#68b872" transform="translate(103,162)"/>
<path d="M0 0 C1.00740234 0.09667969 1.00740234 0.09667969 2.03515625 0.1953125 C4.70242953 1.14830131 5.46177347 2.48468803 6.9375 4.875 C8.13376928 12.51809315 6.37800016 20.37225436 4.6875 27.8125 C4.30464844 29.515271 4.30464844 29.515271 3.9140625 31.25244141 C1.46190068 41.59542802 -1.70928397 51.66913726 -5.0625 61.75 C-5.31326294 62.50868378 -5.56402588 63.26736755 -5.8223877 64.04904175 C-9.01062775 73.63415938 -12.6014587 82.79670185 -17.0625 91.875 C-18.1955212 88.47593641 -18.00048167 88.07379938 -16.65625 84.9453125 C-16.32802246 84.16124023 -15.99979492 83.37716797 -15.66162109 82.56933594 C-15.29891113 81.72145508 -14.93620117 80.87357422 -14.5625 80 C0.49214355 44.03225042 0.49214355 44.03225042 4.9375 5.875 C4.4425 5.38 4.4425 5.38 3.9375 4.875 C3.9375 5.535 3.9375 6.195 3.9375 6.875 C3.23882812 6.86339844 2.54015625 6.85179687 1.8203125 6.83984375 C0.91023438 6.83082031 0.00015625 6.82179687 -0.9375 6.8125 C-1.84242188 6.80089844 -2.74734375 6.78929687 -3.6796875 6.77734375 C-6.0793585 6.71250743 -6.0793585 6.71250743 -8.0625 7.875 C-8.82733298 9.78933278 -8.82733298 9.78933278 -9.4375 12.0625 C-10.98582801 16.96424194 -12.99750709 21.01428596 -16.87890625 24.51171875 C-19.90759537 27.7896381 -21.88890513 31.49546248 -24.0625 35.375 C-29.16559278 44.48324742 -29.16559278 44.48324742 -33.0625 47.875 C-31.80693162 44.57827437 -30.40123334 41.54465866 -28.62890625 38.49609375 C-28.15001953 37.66634033 -27.67113281 36.83658691 -27.17773438 35.98168945 C-26.66533203 35.10085693 -26.15292969 34.22002441 -25.625 33.3125 C-22.32819378 27.61988743 -19.06167475 21.92163573 -15.96484375 16.1171875 C-15.4762085 15.20525635 -14.98757324 14.2933252 -14.48413086 13.35375977 C-13.55252576 11.60654025 -12.6298096 9.85454546 -11.71704102 8.09741211 C-11.08366821 6.91417358 -11.08366821 6.91417358 -10.4375 5.70703125 C-10.07398438 5.01327393 -9.71046875 4.3195166 -9.3359375 3.60473633 C-6.88727175 0.27866332 -3.9721834 -0.47451902 0 0 Z M-4.0625 3.875 C-3.0625 5.875 -3.0625 5.875 -3.0625 5.875 Z " fill="#2eb53e" transform="translate(409.0625,152.125)"/>
<path d="M0 0 C2.25 2.3125 2.25 2.3125 3 5 C2.67 5.99 2.34 6.98 2 8 C1.4225 7.67 0.845 7.34 0.25 7 C-2.19883862 5.72924102 -2.19883862 5.72924102 -6 6 C-6.66 5.67 -7.32 5.34 -8 5 C-8.66 5.66 -9.32 6.32 -10 7 C-10.33 6.67 -10.66 6.34 -11 6 C-11.9448178 9.21238053 -12.07653277 10.77040168 -11 14 C-9.92346723 17.22959832 -10.0551822 18.78761947 -11 22 C-10.34 22 -9.68 22 -9 22 C-9 22.99 -9 23.98 -9 25 C-8.34 25.33 -7.68 25.66 -7 26 C-7.33 26.99 -7.66 27.98 -8 29 C-7.34 29.99 -6.68 30.98 -6 32 C-5.875 34.6875 -5.875 34.6875 -6 37 C-5.34 37 -4.68 37 -4 37 C-4.04125 38.216875 -4.0825 39.43375 -4.125 40.6875 C-4.125 44.28217361 -3.51806071 46.71086847 -2 50 C-1.54310663 51.63176205 -1.08709207 53.26379195 -0.640625 54.8984375 C0.46050352 58.51067618 1.84608794 62.02116409 3.1953125 65.546875 C4 68 4 68 4 71 C7.465 70.505 7.465 70.505 11 70 C10.05066101 73.35433109 9.10251165 76.69246505 8 80 C7.34 80 6.68 80 6 80 C-3.3598748 57.66933424 -13.72789438 31.78896422 -14.25 7.25 C-14.27578125 6.51265625 -14.3015625 5.7753125 -14.328125 5.015625 C-14 3 -14 3 -12.828125 1.265625 C-9.1031381 -1.31321209 -4.3073202 -0.72008881 0 0 Z " fill="#2eb53e" transform="translate(100,154)"/>
<path d="M0 0 C0.66 0.66 1.32 1.32 2 2 C0.647446 6.5494998 -0.97918518 7.68803148 -5 10 C-5.6837045 11.32467746 -6.34964186 12.65863633 -7 14 C-8.62626404 15.38232443 -10.2925002 16.71937515 -12 18 C-12.66 18.66 -13.32 19.32 -14 20 C-15.32 20 -16.64 20 -18 20 C-18.38393921 20.86612915 -18.38393921 20.86612915 -18.77563477 21.74975586 C-20.122151 24.22449965 -21.64745939 25.96627105 -23.58984375 28.00390625 C-24.29173828 28.74447266 -24.99363281 29.48503906 -25.71679688 30.24804688 C-26.44962891 31.01181641 -27.18246094 31.77558594 -27.9375 32.5625 C-28.66646484 33.33013672 -29.39542969 34.09777344 -30.14648438 34.88867188 C-33.06625814 37.95831488 -35.99323992 41.01525049 -39 44 C-39.66 43.67 -40.32 43.34 -41 43 C-39.82244141 41.83984375 -39.82244141 41.83984375 -38.62109375 40.65625 C-32.85101407 34.94688863 -27.24129235 29.2039787 -22 23 C-21.02952241 21.86903889 -20.0580767 20.73890817 -19.0859375 19.609375 C-17.01109431 17.19695811 -14.93695502 14.7839615 -12.8671875 12.3671875 C-12.38757568 11.80757324 -11.90796387 11.24795898 -11.41381836 10.67138672 C-10.02309817 9.02730617 -8.66621705 7.35892671 -7.30859375 5.6875 C-5.04052554 3.04717694 -3.07372369 1.58077218 0 0 Z " fill="#2eb53e" transform="translate(374,206)"/>
<path d="M0 0 C0.79921875 0.02707031 1.5984375 0.05414063 2.421875 0.08203125 C3.02515625 0.11683594 3.6284375 0.15164062 4.25 0.1875 C4.745 2.6625 4.745 2.6625 5.25 5.1875 C4.55132812 5.17589844 3.85265625 5.16429687 3.1328125 5.15234375 C2.22273438 5.14332031 1.31265625 5.13429687 0.375 5.125 C-0.52992188 5.11339844 -1.43484375 5.10179687 -2.3671875 5.08984375 C-4.7668585 5.02500743 -4.7668585 5.02500743 -6.75 6.1875 C-7.51483298 8.10183278 -7.51483298 8.10183278 -8.125 10.375 C-9.67332801 15.27674194 -11.68500709 19.32678596 -15.56640625 22.82421875 C-18.59509537 26.1021381 -20.57640513 29.80796248 -22.75 33.6875 C-27.85309278 42.79574742 -27.85309278 42.79574742 -31.75 46.1875 C-30.48078736 42.8475054 -29.04615552 39.78780207 -27.24609375 36.703125 C-26.75689453 35.8579834 -26.26769531 35.0128418 -25.76367188 34.14208984 C-25.24353516 33.2495752 -24.72339844 32.35706055 -24.1875 31.4375 C-19.80481328 23.87353253 -15.57679063 16.26440246 -11.69311523 8.43066406 C-8.80035425 2.76453257 -6.5981106 -0.29109311 0 0 Z M-2.75 2.1875 C-1.75 4.1875 -1.75 4.1875 -1.75 4.1875 Z " fill="#2eb53e" transform="translate(407.75,153.8125)"/>
<path d="M0 0 C0.66 0.33 1.32 0.66 2 1 C-1.863559 5.48707284 -5.75278056 9.86757027 -10 14 C-10.721875 14.763125 -11.44375 15.52625 -12.1875 16.3125 C-14 18 -14 18 -16 18 C-16 18.66 -16 19.32 -16 20 C-16.99580078 20.48919922 -16.99580078 20.48919922 -18.01171875 20.98828125 C-23.5889783 23.74661537 -23.5889783 23.74661537 -29 26.8125 C-31 28 -31 28 -33 28 C-33.33 28.99 -33.66 29.98 -34 31 C-35.65 31 -37.3 31 -39 31 C-35.10365262 26.82372087 -30.90164649 23.70142208 -26.1875 20.5 C-17.19975424 14.28793953 -7.74888223 7.74888223 0 0 Z " fill="#4caf50" transform="translate(331,250)"/>
<path d="M0 0 C0.66 0.99 1.32 1.98 2 3 C1.54625 3.4125 1.0925 3.825 0.625 4.25 C-1.07191631 5.89481039 -1.07191631 5.89481039 -1.87695312 7.90795898 C-3.15796326 10.29425807 -4.50615906 11.51013024 -6.59375 13.22265625 C-11.13747473 17.06900551 -15.31782148 21.20498044 -19.5 25.4375 C-20.22703125 26.16904297 -20.9540625 26.90058594 -21.703125 27.65429688 C-23.47109499 29.43389824 -25.23666378 31.21580918 -27 33 C-27.578125 31.1015625 -27.578125 31.1015625 -28 29 C-26.26165827 26.74015575 -24.40298607 25.60199072 -22 24 C-20.78581167 22.0533929 -20.78581167 22.0533929 -19.8125 19.875 C-19.46832031 19.15054687 -19.12414062 18.42609375 -18.76953125 17.6796875 C-18.51558594 17.12539063 -18.26164062 16.57109375 -18 16 C-16.68 16 -15.36 16 -14 16 C-12.12640605 14.96040481 -12.12640605 14.96040481 -11 13 C-10.74951364 9.87450983 -10.74951364 9.87450983 -11 7 C-9.906875 6.690625 -8.81375 6.38125 -7.6875 6.0625 C-5.44592006 5.41662103 -3.2130649 4.7376883 -1 4 C-0.26676204 1.98491642 -0.26676204 1.98491642 0 0 Z " fill="#2eb53e" transform="translate(340,317)"/>
<path d="M0 0 C3.66731914 1.62024076 6.55166212 3.89363277 9.6875 6.375 C17.57677589 12.55344627 25.78130366 18.27151944 34 24 C33.01 24.66 32.02 25.32 31 26 C28.6429774 25.05719096 26.30965848 24.05352843 24 23 C22.68 23 21.36 23 20 23 C19.938125 22.4225 19.87625 21.845 19.8125 21.25 C18.65426021 18.04256673 16.78859442 16.88067996 14 15 C11.81785432 14.22166466 11.81785432 14.22166466 10 14 C10.33 13.34 10.66 12.68 11 12 C10.071875 11.443125 9.14375 10.88625 8.1875 10.3125 C5.00643712 8.00467007 3.75979714 6.43160442 2 3 C1.34 2.01 0.68 1.02 0 0 Z " fill="#2eb53e" transform="translate(175,256)"/>
<path d="M0 0 C1.485 0.495 1.485 0.495 3 1 C1.25 4.875 1.25 4.875 -1 6 C-1.34153937 7.66500443 -1.67449498 9.33178677 -2 11 C-4 13 -4 13 -6.375 13.6875 C-9.27321388 15.13660694 -9.59187092 15.73525876 -11 18.5 C-12.39160238 21.21559654 -12.76264699 21.87263985 -15.5625 23.375 C-16.366875 23.58125 -17.17125 23.7875 -18 24 C-18.99 24.33 -19.98 24.66 -21 25 C-21 26.32 -21 27.64 -21 29 C-22.423125 29.3403125 -22.423125 29.3403125 -23.875 29.6875 C-27.19323388 30.69083714 -27.19323388 30.69083714 -28.375 33.625 C-28.58125 34.40875 -28.7875 35.1925 -29 36 C-29.66 35.67 -30.32 35.34 -31 35 C-30.7161507 31.61746253 -30.27685301 30.27092045 -27.8125 27.859375 C-26.884375 27.16328125 -25.95625 26.4671875 -25 25.75 C-15.51428636 18.34082212 -7.14783005 9.69451202 0 0 Z " fill="#4caf50" transform="translate(356,226)"/>
<path d="M0 0 C0.33 0 0.66 0 1 0 C0.85769192 1.41702513 0.71099254 2.8336096 0.5625 4.25 C0.48128906 5.03890625 0.40007812 5.8278125 0.31640625 6.640625 C0.02353704 8.8244892 -0.45789357 10.86801841 -1 13 C-1 13.66 -1 14.32 -1 15 C-1.66 15 -2.32 15 -3 15 C-3.33 14.34 -3.66 13.68 -4 13 C-4.99 13.33 -5.98 13.66 -7 14 C-7.2165625 15.11375 -7.2165625 15.11375 -7.4375 16.25 C-7.623125 17.1575 -7.80875 18.065 -8 19 C-8.1546875 20.0209375 -8.1546875 20.0209375 -8.3125 21.0625 C-9.27004627 23.7610395 -10.90010299 25.08009416 -13 27 C-13.66 27.70125 -14.32 28.4025 -15 29.125 C-16.92787048 30.93237858 -18.58674262 31.96574684 -21 33 C-17.25120726 25.21404584 -17.25120726 25.21404584 -14.0847168 22.14160156 C-11.95734245 19.95617847 -10.55013086 17.86448516 -9.01953125 15.234375 C-8.23352539 13.90019531 -8.23352539 13.90019531 -7.43164062 12.5390625 C-6.89732422 11.61867187 -6.36300781 10.69828125 -5.8125 9.75 C-4.73891376 7.90956645 -3.6622687 6.07091253 -2.58203125 4.234375 C-2.10999268 3.42194336 -1.6379541 2.60951172 -1.15161133 1.77246094 C-0.58156372 0.89509277 -0.58156372 0.89509277 0 0 Z " fill="#2eb53e" transform="translate(391,176)"/>
<path d="M0 0 C0.99 0 1.98 0 3 0 C1.49342882 5.3064785 -0.93847046 9.68098162 -3.75 14.375 C-4.19520996 15.12579834 -4.64041992 15.87659668 -5.09912109 16.65014648 C-8.1175935 21.68257609 -11.30627141 26.43144096 -15 31 C-15 27.55639368 -14.20408468 26.25204608 -12.5 23.3125 C-12.0359375 22.50425781 -11.571875 21.69601562 -11.09375 20.86328125 C-10.7328125 20.24839844 -10.371875 19.63351562 -10 19 C-11.98 19.99 -11.98 19.99 -14 21 C-14 19.68 -14 18.36 -14 17 C-13.01 17 -12.02 17 -11 17 C-11 16.34 -11 15.68 -11 15 C-10.34 15 -9.68 15 -9 15 C-7.61061923 13.03852126 -6.2739589 11.03833424 -5 9 C-5.66 8.34 -6.32 7.68 -7 7 C-6.360625 6.896875 -5.72125 6.79375 -5.0625 6.6875 C-4.0415625 6.3471875 -4.0415625 6.3471875 -3 6 C-2.67 5.01 -2.34 4.02 -2 3 C-1.34 3 -0.68 3 0 3 C0 2.01 0 1.02 0 0 Z " fill="#2eb53e" transform="translate(377,265)"/>
<path d="M0 0 C3.56003608 3.51505367 7.00273741 7.11631408 10.375 10.8125 C10.85686768 11.33875977 11.33873535 11.86501953 11.83520508 12.40722656 C14.49466494 15.32011678 17.1130809 18.26130656 19.6875 21.25 C23.25494914 25.371616 27.10185765 29.19298305 31 33 C28 33 28 33 25.1875 30.41015625 C24.11744936 29.30150926 23.05522392 28.18526845 22 27.0625 C18.08844225 22.70213671 18.08844225 22.70213671 13 20 C13 19.34 13 18.68 13 18 C12.01 17.67 11.02 17.34 10 17 C10 16.34 10 15.68 10 15 C9.34 15 8.68 15 8 15 C8 14.34 8 13.68 8 13 C7.34 13 6.68 13 6 13 C5.67 12.01 5.34 11.02 5 10 C4.34 9.67 3.68 9.34 3 9 C2.26919734 7.02253397 1.60578253 5.01927511 1 3 C0.67 2.01 0.34 1.02 0 0 Z " fill="#2eb53e" transform="translate(135,214)"/>
<path d="M0 0 C1.0726412 3.21792361 0.98361682 3.8661594 0.06640625 6.96484375 C-0.1665918 7.75560303 -0.39958984 8.5463623 -0.63964844 9.36108398 C-0.90293945 10.21130127 -1.16623047 11.06151855 -1.4375 11.9375 C-1.7046582 12.81543213 -1.97181641 13.69336426 -2.24707031 14.59790039 C-5.06396699 23.60860485 -8.54764864 32.32742171 -12.18164062 41.03466797 C-13.1445795 43.3472151 -14.07778552 45.67093792 -15 48 C-15.68707555 45.50935112 -16 43.62113708 -16 41 C-15.34 41 -14.68 41 -14 41 C-13.66269158 39.56342755 -13.33030409 38.12569907 -13 36.6875 C-12.814375 35.88699219 -12.62875 35.08648437 -12.4375 34.26171875 C-11.90504177 31.89304062 -11.90504177 31.89304062 -12 29 C-11.01 28.34 -10.02 27.68 -9 27 C-7.76134292 24.50274993 -7.76134292 24.50274993 -6.8125 21.625 C-6.46832031 20.66851562 -6.12414062 19.71203125 -5.76953125 18.7265625 C-4.8189174 15.83057707 -4.8189174 15.83057707 -5 12 C-4.34 12 -3.68 12 -3 12 C-2.67 8.7 -2.34 5.4 -2 2 C-1.34 2 -0.68 2 0 2 C0 1.34 0 0.68 0 0 Z " fill="#2eb53e" transform="translate(407,193)"/>
<path d="M0 0 C0.66 0.33 1.32 0.66 2 1 C-4.57098837 6.06590165 -11.2375376 10.93523408 -18.125 15.5625 C-18.77605713 16.00384277 -19.42711426 16.44518555 -20.09790039 16.89990234 C-24.75790018 20 -24.75790018 20 -27 20 C-26.67 18.68 -26.34 17.36 -26 16 C-25.01 16 -24.02 16 -23 16 C-22.505 14.865625 -22.01 13.73125 -21.5 12.5625 C-20.17458751 10.1805993 -19.569875 9.1914084 -16.953125 8.3125 C-14.75 8.0625 -14.75 8.0625 -11 8 C-10.67 7.01 -10.34 6.02 -10 5 C-8.01363702 4.29373761 -6.01151741 3.63106429 -4 3 C-1.69833325 1.48446847 -1.69833325 1.48446847 0 0 Z " fill="#2eb53e" transform="translate(291,367)"/>
<path d="M0 0 C0 4.28450515 -2.47250221 6.50388228 -5.0625 9.6875 C-5.56112549 10.31092285 -6.05975098 10.9343457 -6.57348633 11.57666016 C-10.25926114 16.15903911 -14.04160506 20.64981854 -18 25 C-18 22 -18 22 -16 19 C-16.66 18.67 -17.32 18.34 -18 18 C-18 17.01 -18 16.02 -18 15 C-16.02 14.67 -14.04 14.34 -12 14 C-12 13.01 -12 12.02 -12 11 C-10.68 10.67 -9.36 10.34 -8 10 C-7.855625 9.38125 -7.71125 8.7625 -7.5625 8.125 C-6.37159027 3.6260077 -3.83991587 2.45101013 0 0 Z " fill="#2eb53e" transform="translate(357,300)"/>
<path d="M0 0 C-0.43625129 4.756817 -2.17209942 6.5191674 -5.75 9.5625 C-7.04164063 10.67818359 -7.04164063 10.67818359 -8.359375 11.81640625 C-10.88526129 13.90511991 -13.43209713 15.96322812 -16 18 C-16.66 17.67 -17.32 17.34 -18 17 C-17.375 14.625 -17.375 14.625 -16 12 C-14.02111039 11.27306096 -12.02045442 10.60183749 -10 10 C-9.67 9.01 -9.34 8.02 -9 7 C-8.34 7 -7.68 7 -7 7 C-7 5.02 -7 3.04 -7 1 C-4.50935112 0.31292445 -2.62113708 0 0 0 Z " fill="#2eb53e" transform="translate(311,349)"/>
<path d="M0 0 C-0.61697478 4.01033607 -2.76692602 6.68422349 -5 10 C-5.33 10.886875 -5.66 11.77375 -6 12.6875 C-7.19524624 15.45150692 -8.43435247 16.47664678 -11 18 C-11.66 18 -12.32 18 -13 18 C-13 16.35 -13 14.7 -13 13 C-12.38125 12.7525 -11.7625 12.505 -11.125 12.25 C-8.58339049 10.75493558 -8.04013119 9.72034313 -7 7 C-6.87625 6.319375 -6.7525 5.63875 -6.625 4.9375 C-5.60710847 1.78203626 -3.32364486 0 0 0 Z " fill="#2eb53e" transform="translate(367,284)"/>
<path d="M0 0 C0.33 0 0.66 0 1 0 C0.54803484 6.18781392 -1.55640966 10.56520685 -4.5625 15.9375 C-5.19961914 17.10635742 -5.19961914 17.10635742 -5.84960938 18.29882812 C-6.89012854 20.20449805 -7.94374418 22.10300722 -9 24 C-9.66 23.01 -10.32 22.02 -11 21 C-10.06400328 16.83056007 -9.62383901 15.41589267 -6 13 C-5.27617533 10.94074861 -5.27617533 10.94074861 -5 9 C-4.34 9 -3.68 9 -3 9 C-2.87625 7.88625 -2.7525 6.7725 -2.625 5.625 C-2 2 -2 2 0 0 Z " fill="#2eb53e" transform="translate(390,241)"/>
<path d="M0 0 C3 1 3 1 4.25 2.875 C5 5 5 5 4 8 C3.4225 7.67 2.845 7.34 2.25 7 C-0.19883862 5.72924102 -0.19883862 5.72924102 -4 6 C-4.66 5.67 -5.32 5.34 -6 5 C-6.66 5.66 -7.32 6.32 -8 7 C-8.33 6.67 -8.66 6.34 -9 6 C-9.66 7.32 -10.32 8.64 -11 10 C-10.6875 6.625 -10.6875 6.625 -10 3 C-6.73688263 0.82458842 -5.75374806 0.8075001 -2 1 C-1.34 1 -0.68 1 0 1 C0 0.67 0 0.34 0 0 Z " fill="#2eb53e" transform="translate(98,154)"/>
<path d="M0 0 C0 3.74016583 -0.9341591 4.45276193 -3.375 7.1875 C-4.00148438 7.90292969 -4.62796875 8.61835938 -5.2734375 9.35546875 C-7 11 -7 11 -9 11 C-9 12.32 -9 13.64 -9 15 C-10.423125 15.3403125 -10.423125 15.3403125 -11.875 15.6875 C-15.19323388 16.69083714 -15.19323388 16.69083714 -16.375 19.625 C-16.58125 20.40875 -16.7875 21.1925 -17 22 C-17.66 21.67 -18.32 21.34 -19 21 C-18.72219298 17.5576087 -18.24990766 16.24471927 -15.7421875 13.7890625 C-14.79601562 13.07492188 -13.84984375 12.36078125 -12.875 11.625 C-8.2371684 8.01511022 -4.02723575 4.27464273 0 0 Z " fill="#2eb53e" transform="translate(344,240)"/>
<path d="M0 0 C3.13837611 -0.3077917 4.59343628 -0.27813784 7.23828125 1.53125 C7.92277344 2.1809375 8.60726562 2.830625 9.3125 3.5 C10.00988281 4.1496875 10.70726562 4.799375 11.42578125 5.46875 C11.94527344 5.9740625 12.46476563 6.479375 13 7 C9.38792603 7 8.01583392 5.8848962 5 4 C4.01 3.67 3.02 3.34 2 3 C2 3.66 2 4.32 2 5 C3.32 5.33 4.64 5.66 6 6 C5.67 6.66 5.34 7.32 5 8 C2.69 7.34 0.38 6.68 -2 6 C-2 4.68 -2 3.36 -2 2 C-1.34 2 -0.68 2 0 2 C0 1.34 0 0.68 0 0 Z " fill="#2eb53e" transform="translate(162,248)"/>
<path d="M0 0 C4.52156583 2.32537671 7.13279593 4.86785295 10 9 C9.8125 11.375 9.8125 11.375 9 13 C8.01 12.67 7.02 12.34 6 12 C5.01 12.33 4.02 12.66 3 13 C3.0928125 11.3603125 3.0928125 11.3603125 3.1875 9.6875 C3.38097451 6.08357724 3.38097451 6.08357724 1.5 4.25 C1.005 3.8375 0.51 3.425 0 3 C0 2.01 0 1.02 0 0 Z " fill="#2eb53e" transform="translate(125,203)"/>
<path d="M0 0 C0.7109375 1.6328125 0.7109375 1.6328125 1 4 C-0.3359375 6.7421875 -0.3359375 6.7421875 -2.375 9.875 C-2.73207031 10.43147217 -3.08914063 10.98794434 -3.45703125 11.5612793 C-4.22344646 12.75283616 -4.99546248 13.94080544 -5.77246094 15.12548828 C-7.04158112 17.0634964 -8.29228865 19.01239399 -9.5390625 20.96484375 C-11.6813338 24.31734285 -13.83721548 27.66070075 -16 31 C-16.33 30.34 -16.66 29.68 -17 29 C-15.75941431 26.67123472 -14.46785205 24.47697681 -13.0625 22.25 C-12.23042085 20.90057107 -11.39972494 19.55028838 -10.5703125 18.19921875 C-10.14395508 17.50747559 -9.71759766 16.81573242 -9.27832031 16.10302734 C-7.26638959 12.7931016 -5.34823812 9.43155965 -3.4375 6.0625 C-3.09146729 5.45374023 -2.74543457 4.84498047 -2.38891602 4.21777344 C-1.59115681 2.81267341 -0.79533898 1.40647138 0 0 Z " fill="#2eb53e" transform="translate(393,169)"/>
<path d="M0 0 C0.99 0.33 1.98 0.66 3 1 C5.14255793 0.61067144 5.14255793 0.61067144 7 0 C8.25664978 2.90600261 9 4.79604584 9 8 C1.16901408 6.04225352 1.16901408 6.04225352 -2 3 C-2 2.34 -2 1.68 -2 1 C-1.34 0.67 -0.68 0.34 0 0 Z " fill="#2eb53e" transform="translate(217,369)"/>
<path d="M0 0 C0.33 0.99 0.66 1.98 1 3 C4.465 2.505 4.465 2.505 8 2 C7.05066101 5.35433109 6.10251165 8.69246505 5 12 C4.34 12 3.68 12 3 12 C-0.42857143 4.71428571 -0.42857143 4.71428571 0 0 Z " fill="#2eb53e" transform="translate(103,222)"/>
<path d="M0 0 C1.5 1.0625 1.5 1.0625 3 3 C3.31254204 8.20903404 2.60011259 12.88788411 1.5 17.9375 C1.35691406 18.62134766 1.21382813 19.30519531 1.06640625 20.00976562 C0.71716229 21.67449514 0.35947054 23.33744875 0 25 C-2.34806741 21.35644712 -2.08120777 18.54841608 -1.6875 14.3125 C-1.58824219 13.15363281 -1.48898437 11.99476563 -1.38671875 10.80078125 C-1 8 -1 8 0 7 C0.04092937 4.66702567 0.04241723 2.33294775 0 0 Z " fill="#2eb53e" transform="translate(412,155)"/>
<path d="M0 0 C0.33 0 0.66 0 1 0 C1.64317031 7.07487342 -0.17264102 11.09493185 -4 17 C-4.99 17 -5.98 17 -7 17 C-5.1668733 11.00067626 -2.92678249 5.55079437 0 0 Z " fill="#2eb53e" transform="translate(399,157)"/>
<path d="M0 0 C2 2 4 4 6 6 C6.66 5.34 7.32 4.68 8 4 C8.84026396 5.76755526 9.67198722 7.53917263 10.5 9.3125 C10.9640625 10.29863281 11.428125 11.28476562 11.90625 12.30078125 C13 15 13 15 13 18 C11.20007488 15.94423268 9.41014591 13.88103782 7.625 11.8125 C6.86316406 10.9452832 6.86316406 10.9452832 6.0859375 10.06054688 C3.33206348 6.85373305 1.28384757 4.10676541 0 0 Z " fill="#2eb53e" transform="translate(142,299)"/>
<path d="M0 0 C1.32 0 2.64 0 4 0 C4 0.66 4 1.32 4 2 C5.65 1.67 7.3 1.34 9 1 C9 2.32 9 3.64 9 5 C9.66 5 10.32 5 11 5 C11.33 4.01 11.66 3.02 12 2 C15.465 1.505 15.465 1.505 19 1 C16.87380903 3.33881007 15.00223508 4.94038762 12 6 C7.33312263 5.74773636 3.90294198 3.3723765 0 1 C0 0.67 0 0.34 0 0 Z " fill="#2eb53e" transform="translate(240,389)"/>
<path d="M0 0 C0 2.625 0 2.625 -1 6 C-7.14864865 12 -7.14864865 12 -11 12 C-11 11.01 -11 10.02 -11 9 C-6.77777778 6 -6.77777778 6 -4 6 C-4.33 4.35 -4.66 2.7 -5 1 C-2 0 -2 0 0 0 Z " fill="#2eb53e" transform="translate(295,360)"/>
<path d="M0 0 C2.22093599 2.22093599 2.83730346 3.83381641 3.9375 6.75 C5.10196849 9.78374686 6.2919283 12.55365713 7.8125 15.4375 C9 18 9 18 8 21 C8 20.34 8 19.68 8 19 C7.34 19 6.68 19 6 19 C2.82523652 12.62704304 0.40475235 7.15062486 0 0 Z " fill="#2eb53e" transform="translate(103,162)"/>
<path d="M0 0 C0.66 0 1.32 0 2 0 C2.33 1.32 2.66 2.64 3 4 C3.763125 3.835 4.52625 3.67 5.3125 3.5 C8 3 8 3 11 3 C10.67 3.66 10.34 4.32 10 5 C9.32136945 6.9959722 8.65358081 8.99568551 8 11 C2.19794344 5.35475578 2.19794344 5.35475578 0 2 C0 1.34 0 0.68 0 0 Z " fill="#2eb53e" transform="translate(141,295)"/>
<path d="M0 0 C4.07376031 1.61010527 6.76507069 4.53822271 9.75 7.625 C10.25660156 8.140625 10.76320312 8.65625 11.28515625 9.1875 C12.52803902 10.45383339 13.76465276 11.7263144 15 13 C14.01 13.66 13.02 14.32 12 15 C10.68 13.02 9.36 11.04 8 9 C7.01 9.495 7.01 9.495 6 10 C6 9.01 6 8.02 6 7 C5.34 7 4.68 7 4 7 C2.02 3.535 2.02 3.535 0 0 Z " fill="#2eb53e" transform="translate(149,234)"/>
<path d="M0 0 C7.83783784 1.95945946 7.83783784 1.95945946 11 5 C11.33 5.99 11.66 6.98 12 8 C13.49985609 9.66710346 13.49985609 9.66710346 15 11 C10.92584833 9.59790456 8.01720177 7.65552322 4.6875 4.9375 C3.80449219 4.22464844 2.92148438 3.51179688 2.01171875 2.77734375 C1.34785156 2.19082031 0.68398437 1.60429687 0 1 C0 0.67 0 0.34 0 0 Z " fill="#2eb53e" transform="translate(204,364)"/>
<path d="M0 0 C1.17755859 -0.01160156 1.17755859 -0.01160156 2.37890625 -0.0234375 C3.05824219 0.10804688 3.73757812 0.23953125 4.4375 0.375 C5.0975 1.365 5.7575 2.355 6.4375 3.375 C5.82261719 3.26800781 5.20773438 3.16101563 4.57421875 3.05078125 C3.36185547 2.87095703 3.36185547 2.87095703 2.125 2.6875 C1.32449219 2.55988281 0.52398437 2.43226563 -0.30078125 2.30078125 C-2.59455807 2.18511747 -2.59455807 2.18511747 -4.34375 3.5 C-6.03580023 6.10315419 -5.85854075 7.98717882 -5.75 11.0625 C-5.72292969 12.05636719 -5.69585937 13.05023438 -5.66796875 14.07421875 C-5.63316406 14.83347656 -5.59835938 15.59273437 -5.5625 16.375 C-7.25463943 13.41544139 -7.85771319 11.21800083 -7.875 7.8125 C-7.89175781 7.04808594 -7.90851563 6.28367188 -7.92578125 5.49609375 C-7.5625 3.375 -7.5625 3.375 -6.328125 1.62109375 C-4.08825838 0.04030293 -2.72313442 -0.02691731 0 0 Z " fill="#2eb53e" transform="translate(93.5625,153.625)"/>
<path d="M0 0 C6.74742227 0 10.46690141 4.57771049 15 9 C14.67 9.99 14.34 10.98 14 12 C13.01 11.67 12.02 11.34 11 11 C11.33 10.34 11.66 9.68 12 9 C10.56542672 8.0165504 9.12722594 7.03839079 7.6875 6.0625 C6.88699219 5.51722656 6.08648437 4.97195312 5.26171875 4.41015625 C2.9741857 2.86162674 2.9741857 2.86162674 0 2 C0 1.34 0 0.68 0 0 Z " fill="#2eb53e" transform="translate(164,251)"/>
<path d="M0 0 C2.31 1.98 4.62 3.96 7 6 C7.66 5.34 8.32 4.68 9 4 C11.125 4.375 11.125 4.375 13 5 C13 5.99 13 6.98 13 8 C10.4375 8.9375 10.4375 8.9375 7 9 C4.26451072 7.01253873 2.02672934 4.70430454 0 2 C0 1.34 0 0.68 0 0 Z " fill="#2eb53e" transform="translate(163,325)"/>
<path d="M0 0 C0 3.99282941 -1.47808076 5.15331592 -4 8.1875 C-4.7425 9.08855469 -5.485 9.98960937 -6.25 10.91796875 C-6.8275 11.60503906 -7.405 12.29210937 -8 13 C-8 9.58012972 -7.52745657 7.05491313 -6 4 C-4.02514795 2.6296945 -2.02613283 1.29327628 0 0 Z " fill="#2eb53e" transform="translate(357,300)"/>
<path d="M0 0 C0 0.99 0 1.98 0 3 C-0.66 3.66 -1.32 4.32 -2 5 C-2.268125 5.721875 -2.53625 6.44375 -2.8125 7.1875 C-4.38340401 10.90806213 -6.58791171 13.76272362 -9 17 C-9.99 16.67 -10.98 16.34 -12 16 C-11.51789063 15.48050781 -11.03578125 14.96101562 -10.5390625 14.42578125 C-7.20297698 10.7424705 -4.63071155 7.75624202 -3 3 C-1.375 1.1875 -1.375 1.1875 0 0 Z " fill="#2eb53e" transform="translate(369,209)"/>
<path d="M0 0 C1.32 0.99 2.64 1.98 4 3 C3.34 4.65 2.68 6.3 2 8 C1.01 8 0.02 8 -1 8 C-2.0625 6.125 -2.0625 6.125 -3 4 C-2.67 3.34 -2.34 2.68 -2 2 C-1.34 2 -0.68 2 0 2 C0 1.34 0 0.68 0 0 Z " fill="#2eb53e" transform="translate(123,199)"/>
<path d="M0 0 C0.99 0.33 1.98 0.66 3 1 C3 1.66 3 2.32 3 3 C3.66 3 4.32 3 5 3 C5 3.99 5 4.98 5 6 C5.66 6 6.32 6 7 6 C7.99 7.485 7.99 7.485 9 9 C8.67 9.99 8.34 10.98 8 12 C6.84545838 10.75803878 5.70167438 9.50607155 4.5625 8.25 C3.92441406 7.55390625 3.28632813 6.8578125 2.62890625 6.140625 C1.00918675 4.01207275 0.41732744 2.60976595 0 0 Z " fill="#2eb53e" transform="translate(152,309)"/>
<path d="M0 0 C-0.54226981 3.79588866 -2.20127563 5.47211993 -5 8 C-5.66 7.67 -6.32 7.34 -7 7 C-6.61402985 4.20171644 -6.19863427 3.1794116 -4.0625 1.25 C-2 0 -2 0 0 0 Z " fill="#2eb53e" transform="translate(367,284)"/>
<path d="M0 0 C3 3 6 6 9 9 C8.67 9.66 8.34 10.32 8 11 C5.625 10.375 5.625 10.375 3 9 C1.75 6.0625 1.75 6.0625 1 3 C0.67 2.01 0.34 1.02 0 0 Z " fill="#2eb53e" transform="translate(135,214)"/>
<path d="M0 0 C1 2 1 2 0.4375 4.4375 C-1.44098755 7.78610824 -3.51621754 8.56104638 -7 10 C-2.87804878 1.43902439 -2.87804878 1.43902439 0 0 Z " fill="#2eb53e" transform="translate(377,199)"/>
<path d="M0 0 C2.4375 0.8125 2.4375 0.8125 5 2 C5.33 2.99 5.66 3.98 6 5 C3.36 5.99 0.72 6.98 -2 8 C-1.67 7.01 -1.34 6.02 -1 5 C-0.34 5 0.32 5 1 5 C0.67 3.35 0.34 1.7 0 0 Z " fill="#2eb53e" transform="translate(114,192)"/>
<path d="M0 0 C0.71614583 1.69270833 1.43229167 3.38541667 2.1484375 5.078125 C3.03806401 7.08590592 4.00418825 9.04301344 5 11 C3.86800647 10.0919838 2.74467637 9.17316174 1.625 8.25 C0.99851563 7.73953125 0.37203125 7.2290625 -0.2734375 6.703125 C-2.08312318 4.91800519 -3.00117455 3.32050356 -4 1 C-2 0 -2 0 0 0 Z " fill="#2eb53e" transform="translate(166,321)"/>
<path d="M0 0 C0.99 0 1.98 0 3 0 C1.74194623 4.50802601 0.09592835 7.4912812 -3 11 C-2.67 8.36 -2.34 5.72 -2 3 C-1.34 3 -0.68 3 0 3 C0 2.01 0 1.02 0 0 Z " fill="#2eb53e" transform="translate(377,265)"/>
<path d="M0 0 C1.48484412 0.39595843 2.9628831 0.81750706 4.4375 1.25 C5.26121094 1.48203125 6.08492187 1.7140625 6.93359375 1.953125 C9 3 9 3 9.78515625 5.109375 C9.85605469 5.73328125 9.92695313 6.3571875 10 7 C5.56541027 5.6062718 3.12621626 3.39417765 0 0 Z " fill="#2eb53e" transform="translate(219,375)"/>
<path d="M0 0 C3 1 6 2 9 3 C9 3.99 9 4.98 9 6 C9.66 6.66 10.32 7.32 11 8 C7.63833578 7.40501518 5.78840322 6.25635842 3.25 4 C2.63640625 3.46375 2.0228125 2.9275 1.390625 2.375 C0.93171875 1.92125 0.4728125 1.4675 0 1 C0 0.67 0 0.34 0 0 Z " fill="#2eb53e" transform="translate(199,358)"/>
<path d="M0 0 C0.66 0 1.32 0 2 0 C3.05566977 3.16700931 2.97926374 3.96428241 2 7 C1.67 7.66 1.34 8.32 1 9 C-0.32 7.35 -1.64 5.7 -3 4 C-2 2 -2 2 0 0 Z " fill="#2eb53e" transform="translate(140,290)"/>
<path d="M0 0 C4.12751449 0.60698743 7.3321148 2.03810791 11 4 C10.01 4.66 9.02 5.32 8 6 C5.36 4.68 2.72 3.36 0 2 C0 1.34 0 0.68 0 0 Z " fill="#2eb53e" transform="translate(198,276)"/>
<path d="M0 0 C0.66 0.33 1.32 0.66 2 1 C0.25 3 0.25 3 -2 5 C-3.32 5 -4.64 5 -6 5 C-6.33 5.66 -6.66 6.32 -7 7 C-7.66 6.34 -8.32 5.68 -9 5 C-7.54735962 4.1361871 -6.0876837 3.28419546 -4.625 2.4375 C-3.40683594 1.72400391 -3.40683594 1.72400391 -2.1640625 0.99609375 C-1.44992187 0.66738281 -0.73578125 0.33867187 0 0 Z " fill="#2eb53e" transform="translate(285,284)"/>
<path d="M0 0 C3.59391114 1.33488128 6.75490696 2.96022723 10 5 C8.375 5.6875 8.375 5.6875 6 6 C2.75 4.5625 2.75 4.5625 0 3 C0 2.01 0 1.02 0 0 Z " fill="#2eb53e" transform="translate(209,281)"/>
<path d="M0 0 C0.33 0.66 0.66 1.32 1 2 C0.0409375 2.1546875 0.0409375 2.1546875 -0.9375 2.3125 C-1.618125 2.539375 -2.29875 2.76625 -3 3 C-3.33 3.99 -3.66 4.98 -4 6 C-5.65 6 -7.3 6 -9 6 C-3.85714286 0.42857143 -3.85714286 0.42857143 0 0 Z " fill="#2eb53e" transform="translate(301,275)"/>
<path d="M0 0 C0.68359375 1.671875 0.68359375 1.671875 1 4 C-0.21484375 6.578125 -0.21484375 6.578125 -1.9375 9.25 C-2.50339844 10.14203125 -3.06929688 11.0340625 -3.65234375 11.953125 C-4.09707031 12.62859375 -4.54179687 13.3040625 -5 14 C-6 11 -6 11 -4.78515625 8.30078125 C-4.21667969 7.31464844 -3.64820313 6.32851562 -3.0625 5.3125 C-2.49660156 4.31863281 -1.93070312 3.32476562 -1.34765625 2.30078125 C-0.90292969 1.54152344 -0.45820313 0.78226563 0 0 Z " fill="#2eb53e" transform="translate(393,169)"/>
<path d="M0 0 C1.670625 0.061875 1.670625 0.061875 3.375 0.125 C3.375 0.455 3.375 0.785 3.375 1.125 C1.725 1.125 0.075 1.125 -1.625 1.125 C-1.625 2.115 -1.625 3.105 -1.625 4.125 C-3.605 5.115 -3.605 5.115 -5.625 6.125 C-5.625 0.92300404 -5.21373417 0.17978394 0 0 Z " fill="#2eb53e" transform="translate(406.625,153.875)"/>
<path d="M0 0 C1.32 0.33 2.64 0.66 4 1 C2.02 3.31 0.04 5.62 -2 8 C-2.33 6.68 -2.66 5.36 -3 4 C-1.5625 2.3125 -1.5625 2.3125 0 1 C0 0.67 0 0.34 0 0 Z " fill="#2eb53e" transform="translate(315,342)"/>
<path d="M0 0 C0.66 0.99 1.32 1.98 2 3 C1.319375 3.61875 1.319375 3.61875 0.625 4.25 C-1.05950374 6.06408095 -1.99265971 7.75285627 -3 10 C-3.33 10 -3.66 10 -4 10 C-4 8.35 -4 6.7 -4 5 C-3.01 4.67 -2.02 4.34 -1 4 C-0.26676204 1.98491642 -0.26676204 1.98491642 0 0 Z " fill="#2eb53e" transform="translate(340,317)"/>
<path d="M0 0 C2.475 0.99 2.475 0.99 5 2 C5 2.99 5 3.98 5 5 C3.35 5.33 1.7 5.66 0 6 C-0.38218767 4.34385343 -0.71395102 2.67542976 -1 1 C-0.67 0.67 -0.34 0.34 0 0 Z " fill="#2eb53e" transform="translate(221,289)"/>
<path d="M0 0 C1.98 0.99 1.98 0.99 4 2 C3.67 4.31 3.34 6.62 3 9 C0.90250005 6.64031256 0.03094296 5.45383006 -0.1875 2.25 C-0.125625 1.5075 -0.06375 0.765 0 0 Z " fill="#2eb53e" transform="translate(122,264)"/>
<path d="M0 0 C0.66 0.33 1.32 0.66 2 1 C1.74438677 3.3431213 1.40729228 5.67843403 1 8 C0.01 8.495 0.01 8.495 -1 9 C-1.80967438 6.08517222 -2.21845993 4.53886783 -1.0625 1.6875 C-0.711875 1.130625 -0.36125 0.57375 0 0 Z " fill="#2eb53e" transform="translate(381,256)"/>
<path d="M0 0 C0.66 0 1.32 0 2 0 C2 0.66 2 1.32 2 2 C2.99 2.33 3.98 2.66 5 3 C5 4.98 5 6.96 5 9 C1.9083091 6.47043472 1.09068668 3.77545388 0 0 Z " fill="#2eb53e" transform="translate(112,249)"/>
<path d="M0 0 C0.99 0.99 1.98 1.98 3 3 C2.67 3.66 2.34 4.32 2 5 C1.01 4.67 0.02 4.34 -1 4 C-1.33 3.01 -1.66 2.02 -2 1 C-1.34 0.67 -0.68 0.34 0 0 Z M3 2 C3.99 2.33 4.98 2.66 6 3 C5.34 3.66 4.68 4.32 4 5 C3.67 4.01 3.34 3.02 3 2 Z " fill="#2eb53e" transform="translate(130,273)"/>
<path d="M0 0 C2.52588702 2.36292656 3.88820837 3.66462511 5 7 C2.5625 6.25 2.5625 6.25 0 5 C-0.875 2.9375 -0.875 2.9375 -1 1 C-0.67 0.67 -0.34 0.34 0 0 Z " fill="#2eb53e" transform="translate(235,382)"/>
<path d="M0 0 C0.66 0.33 1.32 0.66 2 1 C1.67 2.32 1.34 3.64 1 5 C1.66 5 2.32 5 3 5 C3 5.66 3 6.32 3 7 C0.525 6.01 0.525 6.01 -2 5 C-1.34 3.35 -0.68 1.7 0 0 Z " fill="#2eb53e" transform="translate(230,376)"/>
<path d="M0 0 C0.99 0.33 1.98 0.66 3 1 C2.3125 2.9375 2.3125 2.9375 1 5 C-1.625 5.75 -1.625 5.75 -4 6 C-2.68 4.02 -1.36 2.04 0 0 Z " fill="#2eb53e" transform="translate(356,226)"/>
<path d="M0 0 C3 1 3 1 4.25 2.875 C5 5 5 5 4 8 C1 6 1 6 0.3125 2.875 C0.209375 1.92625 0.10625 0.9775 0 0 Z " fill="#2eb53e" transform="translate(98,154)"/>
<path d="M0 0 C0.66 0.33 1.32 0.66 2 1 C1 3 0 5 -1 7 C-1.99 6.01 -2.98 5.02 -4 4 C-2.68 2.68 -1.36 1.36 0 0 Z " fill="#2eb53e" transform="translate(150,297)"/>
<path d="M0 0 C0.66 0.99 1.32 1.98 2 3 C-0.75 8.875 -0.75 8.875 -3 10 C-2.25 3.375 -2.25 3.375 0 0 Z " fill="#2eb53e" transform="translate(361,290)"/>
<path d="M0 0 C0.66 0 1.32 0 2 0 C1.67 2.64 1.34 5.28 1 8 C0.34 8 -0.32 8 -1 8 C-1.625 5.6875 -1.625 5.6875 -2 3 C-1.34 2.01 -0.68 1.02 0 0 Z " fill="#2eb53e" transform="translate(389,183)"/>
</svg>
